<svg xmlns="http://www.w3.org/2000/svg" xmlns:xlink="http://www.w3.org/1999/xlink" viewBox="2519.329 -183 308.219 300">
  <defs>
    <style>
      .cls-1 {
        fill: #fff;
        stroke: #3a2099;
      }

      .cls-2 {
        clip-path: url(#clip-path);
      }

      .cls-3 {
        fill: #fdad00;
      }

      .cls-4 {
        fill: #ea6c00;
      }

      .cls-5 {
        fill: #fdd237;
      }

      .cls-6 {
        filter: url(#Path_527);
      }

      .cls-7 {
        filter: url(#Path_526);
      }

      .cls-8 {
        filter: url(#Path_525);
      }

      .cls-9 {
        filter: url(#Path_523);
      }
    </style>
    <clipPath id="clip-path">
      <rect id="Rectangle_65" data-name="Rectangle 65" class="cls-1" width="308.219" height="300"/>
    </clipPath>
    <filter id="Path_523" x="2530.972" y="-182.163" width="284.932" height="303.07" filterUnits="userSpaceOnUse">
      <feOffset dy="15" input="SourceAlpha"/>
      <feGaussianBlur stdDeviation="3" result="blur"/>
      <feFlood flood-opacity="0.161"/>
      <feComposite operator="in" in2="blur"/>
      <feComposite in="SourceGraphic"/>
    </filter>
    <filter id="Path_525" x="2555.709" y="-66.643" width="124.666" height="143.203" filterUnits="userSpaceOnUse">
      <feOffset dy="10" input="SourceAlpha"/>
      <feGaussianBlur stdDeviation="3" result="blur-2"/>
      <feFlood flood-opacity="0.161"/>
      <feComposite operator="in" in2="blur-2"/>
      <feComposite in="SourceGraphic"/>
    </filter>
    <filter id="Path_526" x="2666.656" y="-66.64" width="124.664" height="143.2" filterUnits="userSpaceOnUse">
      <feOffset dy="10" input="SourceAlpha"/>
      <feGaussianBlur stdDeviation="3" result="blur-3"/>
      <feFlood flood-opacity="0.161"/>
      <feComposite operator="in" in2="blur-3"/>
      <feComposite in="SourceGraphic"/>
    </filter>
    <filter id="Path_527" x="2611.304" y="-164.6" width="124.66" height="143.2" filterUnits="userSpaceOnUse">
      <feOffset dy="10" input="SourceAlpha"/>
      <feGaussianBlur stdDeviation="3" result="blur-4"/>
      <feFlood flood-opacity="0.161"/>
      <feComposite operator="in" in2="blur-4"/>
      <feComposite in="SourceGraphic"/>
    </filter>
  </defs>
  <g id="Company_Logo" data-name="Company Logo" transform="translate(3781.822 269) rotate(180)">
    <g id="Group_109" data-name="Group 109" transform="translate(1262.493 452) rotate(180)">
      <g id="Company_Logo-2" data-name="Company Logo" class="cls-2" transform="translate(0)">
        <g id="enterprise" transform="translate(20.643 0.837)">
          <g class="cls-9" transform="matrix(1, 0, 0, 1, -2539.97, 182.16)">
            <path id="Path_523-2" data-name="Path 523" class="cls-3" d="M133.466,0h0L0,46.326,20.357,218.093,133.466,279.07h0l113.109-60.977L266.932,46.326Z" transform="translate(2539.97 -182.16)"/>
          </g>
          <path id="Path_524" data-name="Path 524" class="cls-4" d="M0,0V172.186H0V279.07H0l113.109-60.977L133.466,46.326Z" transform="translate(133.466)"/>
        </g>
      </g>
      <g id="block" transform="translate(45.381 18.4)">
        <g class="cls-8" transform="matrix(1, 0, 0, 1, -2564.71, 164.6)">
          <path id="Path_525-2" data-name="Path 525" class="cls-5" d="M106.666,93.007l-.133-61.935L53.218,0,0,30.96.13,93.38,53.218,124.2Zm-48.039,15.56.1-43.365L95.779,43.554l.1,43.27ZM53.211,12.476,90.449,34.182,53.337,55.859,16.1,34.071ZM10.812,43.47,47.939,65.2l-.095,43.424L10.9,87.167Z" transform="translate(2564.71 -66.64)"/>
        </g>
        <g class="cls-7" transform="matrix(1, 0, 0, 1, -2564.71, 164.6)">
          <path id="Path_526-2" data-name="Path 526" class="cls-5" d="M53.217,0,0,30.957l.133,62.42L53.223,124.2,106.664,93l-.133-61.935Zm-.008,12.472L90.448,34.179,53.335,55.855,16.1,34.067Zm-42.4,30.994L47.934,65.192l-.095,43.424L10.905,87.163Zm47.818,65.1L58.72,65.2,95.777,43.55l.095,43.27Z" transform="translate(2675.66 -66.64)"/>
        </g>
        <g class="cls-6" transform="matrix(1, 0, 0, 1, -2564.71, 164.6)">
          <path id="Path_527-2" data-name="Path 527" class="cls-5" d="M106.533,31.064,53.217,0,0,30.952.128,93.374,53.217,124.2,106.66,93ZM53.21,12.471l37.241,21.7L53.339,55.856,16.1,34.061ZM10.81,43.462l37.127,21.73-.093,43.424L10.9,87.167Zm47.813,65.1L58.717,65.2,95.775,43.545l.095,43.273Z" transform="translate(2620.3 -164.6)"/>
        </g>
      </g>
    </g>
  </g>
</svg>
