<svg xmlns="http://www.w3.org/2000/svg" xmlns:xlink="http://www.w3.org/1999/xlink" viewBox="2766 2605.275 250 250">
  <defs>
    <style>
      .cls-1, .cls-4, .cls-5 {
        fill: #fff;
      }

      .cls-1 {
        stroke: #95989a;
      }

      .cls-2 {
        clip-path: url(#clip-path);
      }

      .cls-3, .cls-4 {
        fill-rule: evenodd;
      }
    </style>
    <clipPath id="clip-path">
      <rect id="Rectangle_44" data-name="Rectangle 44" class="cls-1" width="250" height="250"/>
    </clipPath>
  </defs>
  <g id="Docker" class="cls-2" transform="translate(2766 2605.275)">
    <g id="docker-2" data-name="docker" transform="translate(0 44.115)">
      <path id="outline_7_" class="cls-3" d="M130.377,67.163H155.92V93.274h12.915A56.012,56.012,0,0,0,186.58,90.3a45.461,45.461,0,0,0,8.628-3.9,32.032,32.032,0,0,1-5.989-16.511c-.736-7.97.872-18.342,6.265-24.58L198.17,42.2l3.2,2.572c8.055,6.472,14.83,15.516,16.024,25.824,9.7-2.853,21.087-2.178,29.636,2.757l3.508,2.023-1.846,3.6c-7.23,14.111-22.346,18.482-37.125,17.709-22.114,55.079-70.258,81.156-128.635,81.156-30.159,0-57.829-11.275-73.586-38.032l-.258-.437-2.3-4.671A74.078,74.078,0,0,1,.9,97.136l.36-3.861H23.1V67.164H48.64V41.621H99.726V16.078h30.651Z" transform="translate(-0.538 -16.078)"/>
      <g id="Containers_8_" transform="translate(26.818 4.257)">
        <path id="Path_488" data-name="Path 488" class="cls-4" d="M29.809,40.06h1.748V58.509H29.809Zm-3.353,0h1.817V58.509H26.456Zm-3.355,0h1.817V58.509H23.1Zm-3.355,0h1.817V58.509H19.747Zm-3.354,0H18.21V58.509H16.393V40.06Zm-3.284,0h1.747V58.509H13.109Zm-1.844-1.845H33.4V60.352H11.265Z" transform="translate(-11.265 12.87)"/>
        <path id="Path_489" data-name="Path 489" class="cls-4" d="M40.027,29.843h1.749V48.291H40.027Zm-3.353,0h1.817V48.291H36.674Zm-3.355,0h1.817V48.291H33.319V29.843Zm-3.355,0h1.817V48.291H29.964V29.843Zm-3.353,0h1.816V48.291H26.612Zm-3.284,0h1.746V48.291H23.327ZM21.482,28H43.62V50.135H21.482Z" transform="translate(4.06 -2.455)"/>
        <path id="Path_490" data-name="Path 490" class="cls-4" d="M40.027,40.06h1.749V58.509H40.027Zm-3.353,0h1.817V58.509H36.674Zm-3.355,0h1.817V58.509H33.319V40.06Zm-3.355,0h1.817V58.509H29.964V40.06Zm-3.353,0h1.816V58.509H26.612Zm-3.284,0h1.746V58.509H23.327Zm-1.846-1.845H43.62V60.352H21.482Z" transform="translate(4.06 12.87)"/>
        <path id="Path_491" data-name="Path 491" class="cls-4" d="M50.244,40.06h1.747V58.509H50.244Zm-3.354,0h1.818V58.509H46.89Zm-3.354,0h1.817V58.509H43.536Zm-3.355,0H42V58.509H40.182Zm-3.355,0h1.817V58.509H36.827Zm-3.283,0h1.746V58.509H33.544ZM31.7,38.215H53.837V60.352H31.7Z" transform="translate(19.386 12.87)"/>
        <path id="Path_492" data-name="Path 492" class="cls-4" d="M50.244,29.843h1.747V48.291H50.244Zm-3.354,0h1.818V48.291H46.89Zm-3.354,0h1.817V48.291H43.536Zm-3.355,0H42V48.291H40.182Zm-3.355,0h1.817V48.291H36.827Zm-3.283,0h1.746V48.291H33.544ZM31.7,28H53.837V50.135H31.7Z" transform="translate(19.386 -2.455)"/>
        <path id="Path_493" data-name="Path 493" class="cls-4" d="M60.462,40.06h1.748V58.509H60.462Zm-3.354,0h1.817V58.509H57.108Zm-3.355,0H55.57V58.509H53.753Zm-3.355,0h1.817V58.509H50.4Zm-3.353,0h1.817V58.509H47.045Zm-3.285,0h1.747V58.509H43.761Zm-1.845-1.845H64.054V60.352H41.916V38.215Z" transform="translate(34.711 12.87)"/>
        <path id="Path_494" data-name="Path 494" class="cls-4" d="M60.462,29.843h1.748V48.291H60.462Zm-3.354,0h1.817V48.291H57.108Zm-3.355,0H55.57V48.291H53.753Zm-3.355,0h1.817V48.291H50.4Zm-3.353,0h1.817V48.291H47.045Zm-3.285,0h1.747V48.291H43.761ZM41.916,28H64.054V50.135H41.916V28Z" transform="translate(34.711 -2.455)"/>
        <path id="Path_495" data-name="Path 495" class="cls-4" d="M60.462,19.625h1.748V38.074H60.462Zm-3.354,0h1.817V38.074H57.108Zm-3.355,0H55.57V38.074H53.753Zm-3.355,0h1.817V38.074H50.4Zm-3.353,0h1.817V38.074H47.045Zm-3.285,0h1.747V38.074H43.761Zm-1.845-1.844H64.054V39.918H41.916V17.781Z" transform="translate(34.711 -17.781)"/>
        <path id="Path_496" data-name="Path 496" class="cls-4" d="M70.679,40.06h1.747V58.509H70.679Zm-3.354,0h1.816V58.509H67.325Zm-3.356,0h1.817V58.509H63.969Zm-3.354,0h1.817V58.509H60.616Zm-3.355,0h1.817V58.509H57.261Zm-3.284,0h1.748V58.509H53.977Zm-1.844-1.845H74.27V60.352H52.133Z" transform="translate(50.037 12.87)"/>
      </g>
      <path id="Path_497" data-name="Path 497" class="cls-4" d="M33.447,61.426a6.107,6.107,0,1,1-6.107,6.107,6.107,6.107,0,0,1,6.107-6.107" transform="translate(39.665 51.944)"/>
      <path id="Path_498" data-name="Path 498" class="cls-3" d="M32.407,62.12a4.369,4.369,0,0,1,1.584.3,1.784,1.784,0,1,0,2.458,2.4,4.375,4.375,0,1,1-4.041-2.7" transform="translate(40.705 52.984)"/>
      <path id="Path_499" data-name="Path 499" class="cls-5" d="M77.964,95.581C62.839,88.4,54.538,78.647,49.918,68A93.6,93.6,0,0,1,29.7,71.065q-4.435.249-9.329.251-5.642,0-11.887-.332c13.87,13.862,30.933,24.534,62.526,24.73Q74.51,95.713,77.964,95.581Z" transform="translate(11.383 61.799)"/>
    </g>
  </g>
</svg>
