<svg xmlns="http://www.w3.org/2000/svg" viewBox="2918.68 6005 29.786 29.786">
  <defs>
    <style>
      .cls-1 {
        fill: none;
      }

      .cls-2 {
        fill: #95989a;
      }
    </style>
  </defs>
  <g id="ic_phone_black_24px" transform="translate(2918.68 6005)">
    <path id="Path_519" data-name="Path 519" class="cls-1" d="M0,0H29.786V29.786H0Z"/>
    <path id="Path_520" data-name="Path 520" class="cls-2" d="M7.493,12.668a18.8,18.8,0,0,0,8.179,8.179l2.73-2.73a1.234,1.234,0,0,1,1.266-.3,14.157,14.157,0,0,0,4.431.707,1.245,1.245,0,0,1,1.241,1.241V24.1A1.245,1.245,0,0,1,24.1,25.34,21.1,21.1,0,0,1,3,4.241,1.245,1.245,0,0,1,4.241,3H8.585A1.245,1.245,0,0,1,9.826,4.241a14.1,14.1,0,0,0,.707,4.431,1.246,1.246,0,0,1-.31,1.266Z" transform="translate(0.723 0.723)"/>
  </g>
</svg>
