<svg xmlns="http://www.w3.org/2000/svg" xmlns:xlink="http://www.w3.org/1999/xlink" viewBox="3163.789 3313.719 150 150">
  <defs>
    <style>
      .cls-1 {
        fill: #fff;
        stroke: #95989a;
      }

      .cls-2 {
        clip-path: url(#clip-path);
      }

      .cls-3 {
        fill: #4a4a4a;
      }

      .cls-4 {
        fill: #545454;
      }

      .cls-5 {
        fill: #ba2bd2;
        fill-rule: evenodd;
      }
    </style>
    <clipPath id="clip-path">
      <rect id="Rectangle_55" data-name="Rectangle 55" class="cls-1" width="150" height="150"/>
    </clipPath>
  </defs>
  <g id="ngrx" class="cls-2" transform="translate(3163.789 3313.719)">
    <g id="ngrx-2" data-name="ngrx" transform="translate(5.175)">
      <g id="ngrx-3" data-name="ngrx">
        <path id="Shape" class="cls-3" d="M69.825,0,0,24.9l10.65,92.325L69.825,150,129,117.225,139.65,24.9"/>
        <path id="Shape-2" data-name="Shape" class="cls-4" d="M69.75,0V150l59.175-32.775L139.575,24.9"/>
        <path id="path4" class="cls-5" d="M55.917,31.544a2.809,2.809,0,0,0-.562.172,2.851,2.851,0,0,1-.6.176,1.369,1.369,0,0,0-.516.2.731.731,0,0,1-.383.14.708.708,0,0,0-.4.181,1.209,1.209,0,0,1-.351.231,1.067,1.067,0,0,0-.336.231.651.651,0,0,1-.26.181c-.043,0-.078.051-.078.114s-.08.145-.177.182a.384.384,0,0,0-.218.223.2.2,0,0,1-.16.156c-.066,0-.12.034-.12.076a.937.937,0,0,1-.225.311,1.067,1.067,0,0,0-.225.294c0,.032-.067.08-.15.107s-.15.081-.15.123a9.053,9.053,0,0,1-1.388,1.5c-.371.363-.76.746-.865.851a.807.807,0,0,1-.244.192,1.99,1.99,0,0,0-.387.338,1.711,1.711,0,0,1-.4.338.437.437,0,0,0-.2.143,1.192,1.192,0,0,1-.359.238,1.659,1.659,0,0,0-.4.25,2.114,2.114,0,0,1-.818.524.628.628,0,0,0-.319.193.643.643,0,0,1-.34.192.645.645,0,0,0-.323.163.92.92,0,0,1-.438.176,1.518,1.518,0,0,0-.545.214,1.354,1.354,0,0,1-.538.2,1.177,1.177,0,0,0-.476.16,2.7,2.7,0,0,1-.975.183,5.116,5.116,0,0,0-1.094.185,5.572,5.572,0,0,1-1.156.189,3.859,3.859,0,0,0-1.078.187,2.254,2.254,0,0,1-.64.185.932.932,0,0,0-.571.216.592.592,0,0,1-.315.188.774.774,0,0,0-.349.194.429.429,0,0,1-.233.146,4.1,4.1,0,0,0-1,.972.453.453,0,0,1-.14.206,1.189,1.189,0,0,0-.231.415.743.743,0,0,1-.193.338,1.493,1.493,0,0,0-.183.7,8.392,8.392,0,0,1-.186,1.012,22.479,22.479,0,0,0-.131,3.48c-.024,3.012-.03,3.121-.183,3.381a3.369,3.369,0,0,0-.25.544c-.05.152-.123.275-.162.275s-.1.076-.136.17a16.405,16.405,0,0,1-2.444,2.567c-.157.124-.39.316-.518.427s-.326.28-.44.375c-.175.146-1.177,1.134-1.7,1.68a.559.559,0,0,0-.152.23,1.062,1.062,0,0,1-.225.324.887.887,0,0,0-.225.377.439.439,0,0,1-.146.257,1.224,1.224,0,0,0-.229.531,1.183,1.183,0,0,1-.191.488,4.175,4.175,0,0,0,.007,1.98,5.849,5.849,0,0,1,.2,1.149,3.922,3.922,0,0,0,.186,1.035,2.677,2.677,0,0,1,.176.772,1.44,1.44,0,0,0,.216.767,1.011,1.011,0,0,1,.2.432,1.026,1.026,0,0,0,.187.425,1,1,0,0,1,.188.395.524.524,0,0,0,.192.32.513.513,0,0,1,.184.355,4.945,4.945,0,0,0,.167.654,7.163,7.163,0,0,1,0,2.739,2.62,2.62,0,0,0-.173.615,1.558,1.558,0,0,1-.229.6.923.923,0,0,0-.18.352,2.552,2.552,0,0,1-.636.939.216.216,0,0,0-.114.193.3.3,0,0,1-.15.23.271.271,0,0,0-.15.188.9.9,0,0,1-.214.354,1.312,1.312,0,0,0-.265.52.747.747,0,0,1-.16.365,2.448,2.448,0,0,0,.006,1.506,3.059,3.059,0,0,1,.18.79,1.37,1.37,0,0,0,.211.727,1,1,0,0,1,.2.371.882.882,0,0,0,.2.356.5.5,0,0,1,.148.282,1.416,1.416,0,0,0,.337.506,3.481,3.481,0,0,1,.446.6.883.883,0,0,0,.263.319.307.307,0,0,1,.154.2.178.178,0,0,0,.113.147.5.5,0,0,1,.2.233c.048.1.133.19.189.19a.192.192,0,0,1,.151.131,1.066,1.066,0,0,0,.2.291c.086.088.341.37.568.628s.57.637.762.846a1.8,1.8,0,0,1,.393.6,1.141,1.141,0,0,0,.188.4,1.405,1.405,0,0,1,.2.556c.028.206.078.374.11.374.079,0,.205.347.253.695a1.164,1.164,0,0,0,.188.471,1.277,1.277,0,0,1,.2.486c.028.164.077.3.109.3.076,0,.208.337.27.688.026.152.093.294.148.315a.7.7,0,0,1,.2.36,1.327,1.327,0,0,0,.229.454.571.571,0,0,1,.133.353.807.807,0,0,0,.177.431,1.442,1.442,0,0,1,.235.4,1.386,1.386,0,0,0,.2.366.656.656,0,0,1,.139.313.76.76,0,0,0,.183.351,1.284,1.284,0,0,1,.232.413.371.371,0,0,0,.151.235.7.7,0,0,1,.2.362.967.967,0,0,0,.229.421.319.319,0,0,1,.135.207.419.419,0,0,0,.152.239.966.966,0,0,1,.228.412c.042.155.107.282.146.282a1.72,1.72,0,0,1,.368.469c.164.258.35.536.414.619a5.371,5.371,0,0,1,.568.857,1.371,1.371,0,0,0,.246.346,3.53,3.53,0,0,1,.3.343,12.567,12.567,0,0,0,.8,1.012.538.538,0,0,1,.154.242c0,.046.084.139.188.207s.188.156.188.2a.755.755,0,0,0,.206.274c.113.11.375.4.581.637s.552.628.769.861a2.032,2.032,0,0,1,.394.518.1.1,0,0,0,.1.094,1.692,1.692,0,0,1,.653.659.1.1,0,0,0,.094.093,1.662,1.662,0,0,1,.653.591c.046.086.122.156.168.156.078,0,.319.209,1.393,1.208a2.121,2.121,0,0,0,.468.367c.041,0,.115.068.167.15s.135.15.186.15.148.084.216.188.163.188.213.188a.992.992,0,0,1,.348.227c.141.125.366.319.5.431s.4.348.592.524a4.035,4.035,0,0,0,.515.412,2.532,2.532,0,0,1,.788.585c0,.043.1.112.219.154a.484.484,0,0,1,.26.184.17.17,0,0,0,.143.107.934.934,0,0,1,.353.225.981.981,0,0,0,.339.225.444.444,0,0,1,.223.15.445.445,0,0,0,.221.15,1.038,1.038,0,0,1,.345.222.979.979,0,0,0,.379.225.461.461,0,0,1,.255.153.44.44,0,0,0,.24.15.608.608,0,0,1,.285.18,1.324,1.324,0,0,0,.44.267.936.936,0,0,1,.35.194.3.3,0,0,0,.188.109.817.817,0,0,1,.321.188,1.218,1.218,0,0,0,.45.233.891.891,0,0,1,.368.177,1.35,1.35,0,0,0,.411.22.6.6,0,0,1,.308.188.708.708,0,0,0,.376.183,1.253,1.253,0,0,1,.447.194.8.8,0,0,0,.324.16.981.981,0,0,1,.365.187,1.274,1.274,0,0,0,.474.208,1.256,1.256,0,0,1,.45.186,1.025,1.025,0,0,0,.409.165.7.7,0,0,1,.375.181,1.127,1.127,0,0,0,.536.216,1.692,1.692,0,0,1,.563.194,1.04,1.04,0,0,0,.409.16.965.965,0,0,1,.425.187,1.476,1.476,0,0,0,.636.211,1.779,1.779,0,0,1,.626.188,1.186,1.186,0,0,0,.479.162,1.388,1.388,0,0,1,.541.2,1.639,1.639,0,0,0,.741.207,2.8,2.8,0,0,1,.772.182,2.824,2.824,0,0,0,.73.193,1.758,1.758,0,0,1,.642.189,2.256,2.256,0,0,0,.92.184,4.734,4.734,0,0,1,1.046.183,5.223,5.223,0,0,0,1.1.193,4.274,4.274,0,0,1,1.081.2,52.533,52.533,0,0,0,9.864,0,4.749,4.749,0,0,1,1.162-.2,5.374,5.374,0,0,0,1.125-.183,5.009,5.009,0,0,1,1.083-.18,2.527,2.527,0,0,0,1.011-.193,1.852,1.852,0,0,1,.679-.187,2.875,2.875,0,0,0,.753-.184,3.254,3.254,0,0,1,.823-.191,2.428,2.428,0,0,0,.661-.137,1.152,1.152,0,0,1,.675-.27,1.617,1.617,0,0,0,.5-.161,2.334,2.334,0,0,1,.63-.187,1.516,1.516,0,0,0,.6-.212,1.011,1.011,0,0,1,.457-.181,1.1,1.1,0,0,0,.449-.161,1.252,1.252,0,0,1,.473-.175,1.256,1.256,0,0,0,.492-.191,1.277,1.277,0,0,1,.427-.205,1.574,1.574,0,0,0,.461-.215,1.258,1.258,0,0,1,.475-.186c.167-.028.321-.1.343-.156a.658.658,0,0,1,.351-.2.855.855,0,0,0,.37-.186.825.825,0,0,1,.375-.178.969.969,0,0,0,.393-.181,3.727,3.727,0,0,1,.935-.532,2.06,2.06,0,0,0,.413-.257,1.043,1.043,0,0,1,.326-.188.908.908,0,0,0,.317-.194.858.858,0,0,1,.336-.19,1.128,1.128,0,0,0,.4-.232l.316-.288a1.769,1.769,0,0,1,.394-.221c.152-.063.277-.15.277-.191s.091-.117.2-.168a1.783,1.783,0,0,0,.372-.242,2.948,2.948,0,0,1,.765-.562c.045,0,.115-.064.157-.141a.466.466,0,0,1,.265-.189c.1-.026.189-.1.189-.161a.2.2,0,0,1,.131-.162,1.028,1.028,0,0,0,.287-.2c.086-.085.221-.208.3-.273.528-.432,1.435-1.243,1.517-1.358a.316.316,0,0,1,.2-.137c.055,0,.118-.07.14-.156a.3.3,0,0,1,.2-.2c.085-.023.156-.076.156-.118a2.278,2.278,0,0,1,.417-.5,14.141,14.141,0,0,0,1.154-1.282,6.516,6.516,0,0,1,.645-.7.217.217,0,0,0,.109-.165.317.317,0,0,1,.136-.2.611.611,0,0,0,.188-.236.321.321,0,0,1,.195-.176.312.312,0,0,0,.188-.215,1.1,1.1,0,0,1,.231-.379.825.825,0,0,0,.187-.263.543.543,0,0,1,.16-.21,1.621,1.621,0,0,0,.244-.29,4.948,4.948,0,0,1,.535-.779,1.905,1.905,0,0,0,.249-.35l.29-.522a.944.944,0,0,1,.281-.342.187.187,0,0,0,.116-.158,2.7,2.7,0,0,1,.6-.941c.038,0,.091-.117.118-.26a.713.713,0,0,1,.154-.347,1.588,1.588,0,0,0,.256-.4c.14-.287.235-.466.5-.947.058-.1.157-.3.221-.447a1.139,1.139,0,0,1,.215-.337.942.942,0,0,0,.18-.388.982.982,0,0,1,.188-.4.691.691,0,0,0,.158-.327.982.982,0,0,1,.187-.388,1.471,1.471,0,0,0,.228-.513.76.76,0,0,1,.193-.4c.066-.025.1-.151.093-.35,0-.171-.024-.253-.042-.183a.312.312,0,0,1-.2.179,1.618,1.618,0,0,0-.405.247,2.96,2.96,0,0,1-.828.565c-.093.029-.169.083-.169.119a3.18,3.18,0,0,1-.956.633c-.093.028-.169.081-.169.118a3.279,3.279,0,0,1-.962.631c-.09.029-.163.085-.163.126s-.152.141-.338.223-.337.179-.337.215-.114.1-.254.149a1.062,1.062,0,0,0-.383.227.751.751,0,0,1-.34.189.382.382,0,0,0-.251.15.664.664,0,0,1-.361.19.9.9,0,0,0-.416.223.589.589,0,0,1-.313.184.755.755,0,0,0-.342.186.843.843,0,0,1-.4.189.672.672,0,0,0-.37.189.638.638,0,0,1-.34.189.981.981,0,0,0-.37.163,1.247,1.247,0,0,1-.441.182,1.5,1.5,0,0,0-.5.212,1.256,1.256,0,0,1-.477.191c-.164.028-.3.078-.3.113,0,.077-.375.195-.816.258a1.261,1.261,0,0,0-.5.184,1.544,1.544,0,0,1-.638.19,1.974,1.974,0,0,0-.621.156c-.488.317-1.516.152-1.2-.194a.424.424,0,0,1,.234-.144.181.181,0,0,0,.148-.116,2.615,2.615,0,0,1,.96-.634.336.336,0,0,0,.211-.148,1.031,1.031,0,0,1,.379-.264c.152-.063.275-.146.275-.184s.076-.093.169-.122a1.616,1.616,0,0,0,.41-.249,2.836,2.836,0,0,1,.753-.534.919.919,0,0,0,.3-.206c.461-.417.637-.545.811-.589a.336.336,0,0,0,.223-.187c.025-.078.077-.143.116-.143a.585.585,0,0,0,.233-.187.589.589,0,0,1,.232-.187.783.783,0,0,0,.271-.206c.111-.114.486-.459.834-.769a26.347,26.347,0,0,0,2.662-2.737c.108-.124.337-.382.51-.575a5.036,5.036,0,0,0,.427-.534,2.831,2.831,0,0,1,.6-.8c.038,0,.093-.076.122-.169a1.419,1.419,0,0,1,.23-.381.779.779,0,0,0,.177-.305.541.541,0,0,1,.188-.257.525.525,0,0,0,.188-.284.785.785,0,0,1,.188-.344.808.808,0,0,0,.188-.325.317.317,0,0,1,.14-.2.637.637,0,0,0,.193-.338,1.224,1.224,0,0,1,.187-.413,1.8,1.8,0,0,0,.225-.453.786.786,0,0,1,.186-.338.994.994,0,0,0,.188-.432,1.575,1.575,0,0,1,.192-.488,1.278,1.278,0,0,0,.178-.4,1.262,1.262,0,0,1,.2-.421,1.474,1.474,0,0,0,.189-.564,1.517,1.517,0,0,1,.179-.554,1.212,1.212,0,0,0,.159-.5,1.58,1.58,0,0,1,.193-.576,2.269,2.269,0,0,0,.22-.892,3.636,3.636,0,0,1,.186-.886,4.147,4.147,0,0,0,.187-.98,2.721,2.721,0,0,1,.209-.975,66.357,66.357,0,0,0,.125-7.426l-.056-.415-.082.312a1.328,1.328,0,0,1-.208.45.947.947,0,0,0-.177.346.594.594,0,0,1-.183.3.628.628,0,0,0-.184.332,1.224,1.224,0,0,1-.187.412,1.316,1.316,0,0,0-.188.343,1.225,1.225,0,0,1-.236.368.664.664,0,0,0-.181.32.954.954,0,0,1-.187.379,1.012,1.012,0,0,0-.187.348.315.315,0,0,1-.14.192.629.629,0,0,0-.192.334.815.815,0,0,1-.2.368.431.431,0,0,0-.146.222,1.157,1.157,0,0,1-.225.374,1.157,1.157,0,0,0-.225.374.443.443,0,0,1-.15.226.441.441,0,0,0-.15.234.917.917,0,0,1-.215.345,1.545,1.545,0,0,0-.267.415c-.029.093-.084.169-.122.169s-.115.11-.172.244a1.281,1.281,0,0,1-.263.387.462.462,0,0,0-.16.243.3.3,0,0,1-.15.194c-.083.052-.15.135-.15.185a.614.614,0,0,1-.18.271,2.022,2.022,0,0,0-.3.416c-.067.13-.15.236-.183.236s-.1.084-.147.188-.134.188-.194.188-.132.074-.161.163c-.062.2-.5.662-.622.662a.1.1,0,0,0-.086.11.945.945,0,0,1-.281.373c-.154.145-.4.381-.544.525-.49.488-1.067.485-.682,0a.721.721,0,0,0,.157-.325.954.954,0,0,1,.188-.38,1.012,1.012,0,0,0,.188-.348.321.321,0,0,1,.143-.194.9.9,0,0,0,.229-.42.668.668,0,0,1,.186-.359.384.384,0,0,0,.144-.257.839.839,0,0,1,.191-.365,1.134,1.134,0,0,0,.223-.424,1.317,1.317,0,0,1,.18-.4,1.5,1.5,0,0,0,.192-.433.651.651,0,0,1,.2-.352c.059-.022.13-.195.158-.384a1.321,1.321,0,0,1,.187-.514,1.263,1.263,0,0,0,.189-.459.952.952,0,0,1,.184-.417,1.513,1.513,0,0,0,.213-.6,2.314,2.314,0,0,1,.191-.636,2.193,2.193,0,0,0,.189-.6,1.576,1.576,0,0,1,.193-.561,2.294,2.294,0,0,0,.188-.853,4.023,4.023,0,0,1,.184-.939,5.318,5.318,0,0,0,.186-1.215,11.113,11.113,0,0,1,.192-1.441,7.182,7.182,0,0,0,.006-2.5,13.231,13.231,0,0,1-.2-1.525,5.864,5.864,0,0,0-.2-1.3,3.628,3.628,0,0,1-.179-.881c-.05-.483-.108-.706-.208-.807a1.071,1.071,0,0,1-.189-.5,1.158,1.158,0,0,0-.162-.486,1.254,1.254,0,0,1-.178-.477,1.253,1.253,0,0,0-.187-.487,1.354,1.354,0,0,1-.208-.391,2.164,2.164,0,0,0-.217-.445,1.447,1.447,0,0,1-.182-.431c-.029-.134-.081-.244-.115-.244s-.136-.152-.226-.337-.192-.338-.226-.338-.1-.12-.15-.266a1.55,1.55,0,0,0-.26-.458,2.216,2.216,0,0,1-.53-.735.608.608,0,0,0-.22-.292.421.421,0,0,1-.186-.216c-.055-.137-.069-.1-.073.212a1.648,1.648,0,0,0,.115.623,4.372,4.372,0,0,1,.191,1.069,3.129,3.129,0,0,0,.189,1.01,4.471,4.471,0,0,1,.217,1.323c.055.629.139,1.312.187,1.518a33.148,33.148,0,0,1,0,4.912,13.191,13.191,0,0,0-.19,1.408,4.432,4.432,0,0,1-.215,1.246,3.207,3.207,0,0,0-.189.97,4.129,4.129,0,0,1-.187,1,2.858,2.858,0,0,0-.194.654,1.586,1.586,0,0,1-.2.571,1.236,1.236,0,0,0-.159.531,2.036,2.036,0,0,1-.181.645,1.964,1.964,0,0,0-.187.507,1.227,1.227,0,0,1-.193.447,1.468,1.468,0,0,0-.207.527,1.315,1.315,0,0,1-.173.474,1.491,1.491,0,0,0-.2.44A.652.652,0,0,1,102.5,75c-.057.022-.128.177-.156.343a1.267,1.267,0,0,1-.19.48,1.21,1.21,0,0,0-.19.379.585.585,0,0,1-.182.294.651.651,0,0,0-.186.343.917.917,0,0,1-.187.383.84.84,0,0,0-.182.332.854.854,0,0,1-.236.362.53.53,0,0,0-.187.279,3.336,3.336,0,0,1-.6.968.637.637,0,0,0-.151.263,2.343,2.343,0,0,1-.543.745.86.86,0,0,0-.206.31.827.827,0,0,1-.187.3,1.011,1.011,0,0,0-.187.27,1.057,1.057,0,0,1-.206.279c-.113.124-.274.317-.356.427s-.234.3-.338.416-.306.377-.45.573a8.421,8.421,0,0,1-.581.69,1.689,1.689,0,0,0-.319.4c0,.037-.084.1-.187.139s-.187.117-.187.172a.519.519,0,0,1-.169.259c-.093.087-.21.2-.26.257-.116.125-.191.2-.561.571l-.375.375-.375.375-.375.375-.386.383-.652.645a1.475,1.475,0,0,1-.433.338c-.051,0-.131.084-.178.188s-.117.188-.156.188a.809.809,0,0,0-.279.206c-.115.114-.27.256-.345.316s-.29.237-.478.393l-.549.452c-.114.093-.322.277-.462.409l-.255.239.4.05a25.143,25.143,0,0,0,4.626-.143,2.369,2.369,0,0,1,.776-.208,2.534,2.534,0,0,0,.736-.178,2.338,2.338,0,0,1,.677-.18,1.356,1.356,0,0,0,.673-.223,1.063,1.063,0,0,1,.474-.2c.172-.027.331-.1.353-.152s.181-.125.354-.153a.99.99,0,0,0,.459-.195,1.179,1.179,0,0,1,.382-.226,1.7,1.7,0,0,0,.41-.214,1.181,1.181,0,0,1,.394-.182.491.491,0,0,0,.294-.184.459.459,0,0,1,.262-.183c.1-.026.189-.082.189-.124s.147-.139.327-.216a.843.843,0,0,0,.373-.26.217.217,0,0,1,.193-.12.426.426,0,0,0,.26-.112c.124-.124.317-.148.379-.048.022.036-.023.123-.1.193a.737.737,0,0,0-.187.31c-.025.1-.075.182-.11.182a1.486,1.486,0,0,0-.364.31c-.164.17-.339.348-.389.394s-.255.244-.457.44a1.869,1.869,0,0,1-.441.356.21.21,0,0,0-.138.113,7.005,7.005,0,0,1-1.33,1.087c-.053,0-.114.067-.135.15a.328.328,0,0,1-.177.2.612.612,0,0,0-.236.188.314.314,0,0,1-.176.136.76.76,0,0,0-.283.206,2.813,2.813,0,0,1-.752.57,1.867,1.867,0,0,0-.375.261l-.308.279a1.539,1.539,0,0,1-.339.2,1.624,1.624,0,0,0-.371.23,2.314,2.314,0,0,1-.812.545.483.483,0,0,0-.276.187.455.455,0,0,1-.231.186.908.908,0,0,0-.3.193.5.5,0,0,1-.293.143.48.48,0,0,0-.284.131,3.744,3.744,0,0,1-1.134.655c-.128.028-.232.076-.232.108s-.126.122-.281.2a4,4,0,0,0-.46.274.7.7,0,0,1-.339.131,1.068,1.068,0,0,0-.436.188,1.4,1.4,0,0,1-.337.188,2.123,2.123,0,0,0-.4.177,2.67,2.67,0,0,1-.622.229.942.942,0,0,0-.421.188.968.968,0,0,1-.427.19,1.05,1.05,0,0,0-.415.165,1.511,1.511,0,0,1-.576.175,1.889,1.889,0,0,0-.664.214,1.588,1.588,0,0,1-.58.2,1.667,1.667,0,0,0-.545.166,2.758,2.758,0,0,1-.825.182,1.8,1.8,0,0,0-.783.187,1.935,1.935,0,0,1-.831.191,5.024,5.024,0,0,0-1,.189,7.107,7.107,0,0,1-1.779.168,15.1,15.1,0,0,0-1.521.092c-.055.055.338.471.506.534a.2.2,0,0,1,.133.146.837.837,0,0,0,.273.321c.607.5.726.607.887.769a.6.6,0,0,0,.242.169.487.487,0,0,1,.216.158,1.781,1.781,0,0,0,.424.3c.155.079.281.173.281.209s.076.085.169.109a1.241,1.241,0,0,1,.387.233.759.759,0,0,0,.342.189.955.955,0,0,1,.378.188,1.011,1.011,0,0,0,.349.188.44.44,0,0,1,.229.142,1.357,1.357,0,0,0,.56.229,1.286,1.286,0,0,1,.512.192.865.865,0,0,0,.419.155,1.306,1.306,0,0,1,.51.189,2.007,2.007,0,0,0,.868.218,3.924,3.924,0,0,1,.891.181,9.15,9.15,0,0,0,2.524.27c.66.044,1.318.1,1.463.121l.262.042-.281.145c-.155.08-.281.172-.281.206,0,.145-.479.254-1.418.323a3.91,3.91,0,0,0-1.176.185c-.508.333-7.732.331-8.241,0a3.121,3.121,0,0,0-1.125-.188,3.4,3.4,0,0,1-1.113-.179,2.082,2.082,0,0,0-.677-.168,1.525,1.525,0,0,1-.684-.2,1.724,1.724,0,0,0-.717-.21,1.835,1.835,0,0,1-.661-.178,1.151,1.151,0,0,0-.463-.164,1.143,1.143,0,0,1-.5-.2,1.286,1.286,0,0,0-.544-.206,1.327,1.327,0,0,1-.518-.176,1.024,1.024,0,0,0-.393-.169,1.029,1.029,0,0,1-.412-.191,1.256,1.256,0,0,0-.474-.21,1.3,1.3,0,0,1-.45-.183,1.371,1.371,0,0,0-.391-.195,1.019,1.019,0,0,1-.393-.234.476.476,0,0,0-.316-.15.555.555,0,0,1-.336-.148.873.873,0,0,0-.339-.2.452.452,0,0,1-.26-.176.755.755,0,0,0-.377-.221.656.656,0,0,1-.35-.2.2.2,0,0,0-.181-.108.89.89,0,0,1-.4-.225.928.928,0,0,0-.369-.225.329.329,0,0,1-.21-.117A1.283,1.283,0,0,0,68,99.374a1.077,1.077,0,0,1-.328-.258.32.32,0,0,0-.207-.139.414.414,0,0,1-.237-.15.421.421,0,0,0-.211-.15,1,1,0,0,1-.335-.225,1.29,1.29,0,0,0-.3-.225.914.914,0,0,1-.253-.187.8.8,0,0,0-.268-.187c-.036,0-.087-.068-.114-.15s-.093-.15-.148-.15a9.189,9.189,0,0,1-1.663-1.329,1.99,1.99,0,0,0-.328-.246.27.27,0,0,1-.148-.189.1.1,0,0,0-.091-.11c-.108,0-.094.013-1.88-1.776-1.863-1.867-1.779-1.779-1.779-1.883a.1.1,0,0,0-.11-.091.275.275,0,0,1-.191-.152,4.143,4.143,0,0,0-.49-.561l-.409-.409v.924a3.113,3.113,0,0,0,.111,1.147,3.653,3.653,0,0,1,.194.818,1.447,1.447,0,0,0,.217.72.875.875,0,0,1,.186.4.908.908,0,0,0,.158.384,1.17,1.17,0,0,1,.188.41,1.307,1.307,0,0,0,.23.464.91.91,0,0,1,.189.324.317.317,0,0,0,.139.2.6.6,0,0,1,.188.31,1.441,1.441,0,0,0,.24.436,2.526,2.526,0,0,1,.586.878.2.2,0,0,0,.15.17.328.328,0,0,1,.2.177.612.612,0,0,0,.188.236A.314.314,0,0,1,61.8,99a.656.656,0,0,0,.206.282,3.961,3.961,0,0,1,.394.439,5.09,5.09,0,0,0,.394.453.759.759,0,0,1,.206.281c0,.042.084.132.188.2s.188.169.188.225.07.12.156.143a.3.3,0,0,1,.2.194.311.311,0,0,0,.182.2c.078.025.142.075.142.112a.994.994,0,0,0,.23.3c.219.224.224.242.1.378-.165.182-.3.181-.425,0a.852.852,0,0,0-.434-.221.9.9,0,0,1-.409-.181.645.645,0,0,0-.321-.161.646.646,0,0,1-.336-.184.821.821,0,0,0-.341-.216,1.8,1.8,0,0,1-.441-.238.707.707,0,0,0-.294-.153.259.259,0,0,1-.177-.144.51.51,0,0,0-.306-.194.569.569,0,0,1-.319-.193.289.289,0,0,0-.178-.143.785.785,0,0,1-.3-.176,3.217,3.217,0,0,0-.4-.281c-.454-.249-.674-.413-.712-.529a.324.324,0,0,0-.218-.168,2.138,2.138,0,0,1-.8-.589.9.9,0,0,0-.261-.206.674.674,0,0,1-.225-.169c-.094-.093-.216-.209-.271-.259s-.141-.134-.191-.187-.227-.215-.394-.359a1.055,1.055,0,0,1-.3-.348c0-.047-.07-.1-.156-.126a.3.3,0,0,1-.194-.189.291.291,0,0,0-.187-.187.3.3,0,0,1-.189-.194c-.022-.085-.086-.156-.142-.156a.267.267,0,0,1-.181-.148,1.92,1.92,0,0,0-.246-.326,9.248,9.248,0,0,1-1.247-1.6,1.679,1.679,0,0,0-.246-.351,2.163,2.163,0,0,1-.539-.82c-.028-.114-.086-.206-.128-.206s-.143-.147-.223-.328a1.529,1.529,0,0,0-.25-.415.758.758,0,0,1-.157-.363.677.677,0,0,0-.187-.371.6.6,0,0,1-.187-.3.9.9,0,0,0-.154-.322,1.423,1.423,0,0,1-.185-.479,1.675,1.675,0,0,0-.22-.542,1.244,1.244,0,0,1-.191-.458,1.016,1.016,0,0,0-.164-.406,1.9,1.9,0,0,1-.187-.671,1.4,1.4,0,0,0-.185-.626,1.379,1.379,0,0,1-.184-.6,2.867,2.867,0,0,0-.2-.741,3.954,3.954,0,0,1-.186-1.2,5.545,5.545,0,0,0-.191-1.284,34.513,34.513,0,0,1,0-7.312,4.324,4.324,0,0,0,.193-1.222,2.777,2.777,0,0,1,.179-1.088,1.438,1.438,0,0,0,.166-.571c.055-.456.171-.795.271-.795a.933.933,0,0,0,.109-.431,2.432,2.432,0,0,1,.19-.694,3.2,3.2,0,0,0,.221-.585.651.651,0,0,1,.188-.364c.058-.022.127-.164.153-.315a1.365,1.365,0,0,1,.178-.462,2.224,2.224,0,0,0,.226-.474.632.632,0,0,1,.2-.327.6.6,0,0,0,.184-.336.6.6,0,0,1,.188-.338.176.176,0,0,0,.109-.149.568.568,0,0,1,.169-.278,1.91,1.91,0,0,0,.3-.447c.071-.152.162-.276.2-.276s.1-.076.124-.169A1.161,1.161,0,0,1,53.6,66.5l.327-.345a.612.612,0,0,0,.149-.213,20.057,20.057,0,0,1,2.407-2.427c.264-.211.551-.453.638-.537a.559.559,0,0,1,.23-.153.59.59,0,0,0,.237-.19.824.824,0,0,1,.389-.234c.126-.025.224-.093.224-.154s.1-.148.225-.195.225-.113.225-.148.148-.128.33-.208a.905.905,0,0,0,.369-.249.379.379,0,0,1,.24-.153.981.981,0,0,0,.358-.2.565.565,0,0,1,.32-.147.688.688,0,0,0,.364-.187,1.13,1.13,0,0,1,.4-.236.852.852,0,0,0,.335-.188.58.58,0,0,1,.358-.139.8.8,0,0,0,.431-.178,1.257,1.257,0,0,1,.45-.23.7.7,0,0,0,.325-.156,1.289,1.289,0,0,1,.511-.192,1.836,1.836,0,0,0,.594-.221,1.229,1.229,0,0,1,.45-.184,1.022,1.022,0,0,0,.4-.162,1.81,1.81,0,0,1,.633-.189,2.01,2.01,0,0,0,.72-.235,2.122,2.122,0,0,1,1.706,0,1.659,1.659,0,0,0,.571.235,1.211,1.211,0,0,1,.469.179,1.006,1.006,0,0,0,.4.166,1.018,1.018,0,0,1,.433.2,1.226,1.226,0,0,0,.532.207,1.254,1.254,0,0,1,.506.179,1.056,1.056,0,0,0,.445.17,1.05,1.05,0,0,1,.462.189,1.056,1.056,0,0,0,.474.188,1.948,1.948,0,0,1,.565.185,1.964,1.964,0,0,0,.507.187,1.2,1.2,0,0,1,.437.185,1.8,1.8,0,0,0,.612.216,1.582,1.582,0,0,1,.565.194.434.434,0,0,0,.231.113,1.7,1.7,0,0,1,.771.262,1.521,1.521,0,0,0,.575.182,1.656,1.656,0,0,1,.59.184,1.184,1.184,0,0,0,.478.161,1.379,1.379,0,0,1,.536.194,1.822,1.822,0,0,0,.682.212,1.722,1.722,0,0,1,.627.182,1.213,1.213,0,0,0,.5.161,1.581,1.581,0,0,1,.571.189,2.386,2.386,0,0,0,.784.22,2.717,2.717,0,0,1,.752.189,1.715,1.715,0,0,0,.566.156,1.641,1.641,0,0,1,.614.2,1.957,1.957,0,0,0,.886.213,2.868,2.868,0,0,1,.844.174,2.748,2.748,0,0,0,.787.186,1.886,1.886,0,0,1,.751.2,2.5,2.5,0,0,0,1.081.193,6.183,6.183,0,0,1,1.213.183,7.4,7.4,0,0,0,1.446.19,12.225,12.225,0,0,1,1.593.19,10.06,10.06,0,0,0,3.031,0,8.513,8.513,0,0,1,1.23-.192A3.617,3.617,0,0,0,97.1,64.88a2.225,2.225,0,0,1,.664-.182,1.25,1.25,0,0,0,.639-.216.925.925,0,0,1,.413-.2c.147-.027.267-.081.267-.119s.144-.136.319-.218a5.563,5.563,0,0,0,1.666-1.414c.043-.07.146-.239.228-.377a3.5,3.5,0,0,1,.319-.438.682.682,0,0,0,.169-.375,1,1,0,0,1,.146-.422,2.425,2.425,0,0,0,.222-.712,2.253,2.253,0,0,1,.192-.652,1.153,1.153,0,0,0,0-.985,2.685,2.685,0,0,1-.2-.784,2.986,2.986,0,0,0-.182-.774,2.657,2.657,0,0,1-.189-.676,1.484,1.484,0,0,0-.2-.6.864.864,0,0,1-.178-.4,1.774,1.774,0,0,0-.214-.523,1.453,1.453,0,0,1-.192-.5.706.706,0,0,0-.186-.392.589.589,0,0,1-.186-.3,1.217,1.217,0,0,0-.191-.38,1.179,1.179,0,0,1-.189-.4.493.493,0,0,0-.188-.3.46.46,0,0,1-.189-.232.916.916,0,0,0-.195-.3.841.841,0,0,1-.189-.367c-.025-.123-.093-.223-.151-.223s-.143-.1-.186-.225-.108-.225-.144-.225-.12-.106-.187-.235a3.178,3.178,0,0,0-.6-.763A1.05,1.05,0,0,1,98,49.647c-.029-.093-.1-.169-.151-.169s-.159-.093-.232-.206c-.178-.276-2.956-3.047-3.168-3.16-.091-.049-.166-.137-.166-.194s-.076-.128-.169-.157a1.733,1.733,0,0,1-.48-.38,1.532,1.532,0,0,0-.38-.327,1.076,1.076,0,0,1-.32-.224,1.565,1.565,0,0,0-.389-.267.188.188,0,0,1-.138-.15c0-.058-.085-.127-.189-.153a.466.466,0,0,1-.265-.189.255.255,0,0,0-.174-.141.466.466,0,0,1-.241-.158,1.482,1.482,0,0,0-.353-.267,2.806,2.806,0,0,1-.671-.513,2.135,2.135,0,0,0-.45-.278c-.155-.07-.282-.163-.282-.206s-.048-.079-.107-.079a.79.79,0,0,1-.327-.185,2.029,2.029,0,0,0-.4-.263,3.367,3.367,0,0,1-.517-.34,4.1,4.1,0,0,0-.656-.41c-.175-.081-.319-.178-.319-.216s-.083-.09-.184-.116a1.114,1.114,0,0,1-.386-.233.683.683,0,0,0-.326-.187.954.954,0,0,1-.379-.187,1.011,1.011,0,0,0-.349-.187.438.438,0,0,1-.229-.143,1.132,1.132,0,0,0-.444-.225.989.989,0,0,1-.4-.19.653.653,0,0,0-.309-.155.6.6,0,0,1-.313-.18.621.621,0,0,0-.319-.184c-.342-.079-.638-.208-.638-.278,0-.035-.115-.084-.256-.111a.968.968,0,0,1-.411-.193,1.2,1.2,0,0,0-.5-.208,1.218,1.218,0,0,1-.469-.179,1.043,1.043,0,0,0-.416-.168.893.893,0,0,1-.412-.187,1.362,1.362,0,0,0-.569-.215,1.6,1.6,0,0,1-.568-.194,1.159,1.159,0,0,0-.487-.162,1.069,1.069,0,0,1-.5-.187,1.062,1.062,0,0,0-.569-.183,2.927,2.927,0,0,1-.732-.181,3.93,3.93,0,0,0-.78-.215,1.682,1.682,0,0,1-.608-.2,2.081,2.081,0,0,0-.881-.182,4.421,4.421,0,0,1-1-.181,5.667,5.667,0,0,0-1.176-.2A4.233,4.233,0,0,1,71.68,35.4a9.553,9.553,0,0,0-2.756-.158l-2.518-.032-.595-.55a7.072,7.072,0,0,0-1.382-1.124,6.08,6.08,0,0,1-.588-.407.611.611,0,0,0-.271-.152.65.65,0,0,1-.275-.139,1.818,1.818,0,0,0-.459-.231.741.741,0,0,1-.342-.2.824.824,0,0,0-.445-.17,1.816,1.816,0,0,1-.569-.181,1.754,1.754,0,0,0-.586-.172c-.417-.053-.665-.146-.754-.284a32.392,32.392,0,0,0-4.223-.056"/>
      </g>
    </g>
  </g>
</svg>
