<svg xmlns="http://www.w3.org/2000/svg" xmlns:xlink="http://www.w3.org/1999/xlink" viewBox="127 827 325 80">
  <defs>
    <style>
      .cls-1 {
        fill: #fff;
        stroke: #95989a;
      }

      .cls-2 {
        clip-path: url(#clip-path);
      }

      .cls-3 {
        fill: #646464;
      }

      .cls-4 {
        fill: url(#linear-gradient);
      }

      .cls-5 {
        fill: url(#linear-gradient-2);
      }

      .cls-6 {
        opacity: 0.444;
        fill: url(#radial-gradient);
      }
    </style>
    <clipPath id="clip-path">
      <rect id="Rectangle_5" data-name="Rectangle 5" class="cls-1" width="325" height="80" transform="translate(88 924)"/>
    </clipPath>
    <linearGradient id="linear-gradient" x1="0.256" y1="0.171" x2="1.581" y2="1.3" gradientUnits="objectBoundingBox">
      <stop offset="0" stop-color="#5a9fd4"/>
      <stop offset="1" stop-color="#306998"/>
    </linearGradient>
    <linearGradient id="linear-gradient-2" x1="1.415" y1="1.879" x2="0.943" y2="1.221" gradientUnits="objectBoundingBox">
      <stop offset="0" stop-color="#ffd43b"/>
      <stop offset="1" stop-color="#ffe873"/>
    </linearGradient>
    <radialGradient id="radial-gradient" cx="26.216" cy="62.169" r="12.374" gradientUnits="userSpaceOnUse">
      <stop offset="0" stop-color="#b8b8b8" stop-opacity="0.498"/>
      <stop offset="1" stop-color="#7f7f7f" stop-opacity="0"/>
    </radialGradient>
  </defs>
  <g id="python" class="cls-2" transform="translate(39 -97)">
    <g id="python-logo-inkscape" transform="translate(109.434 922.107)">
      <path id="path46" class="cls-3" d="M107.175,35.952q0-12.681-7.231-13.032a13.583,13.583,0,0,0-5.613.922A8.244,8.244,0,0,0,91.382,25.4V45.578q4.626,2.9,8.211,2.693Q107.172,47.77,107.175,35.952Zm5.948.351A17.932,17.932,0,0,1,110.089,47a11.184,11.184,0,0,1-9.387,4.951,16.653,16.653,0,0,1-9.32-2.829V67.459L86.21,65.615V24.907a11.562,11.562,0,0,1,3.266-2.693A22.407,22.407,0,0,1,100.7,19.452l.074.074a10.294,10.294,0,0,1,9.3,4.951Q113.119,29.086,113.123,36.3Z"/>
      <path id="path48" class="cls-3" d="M144.731,48.339q0,8.641-1.732,11.968t-6.626,5.308a25.363,25.363,0,0,1-8.567,1.7l-.854-3.259a41.166,41.166,0,0,0,6.586-1.273,8.705,8.705,0,0,0,5.172-3.893q1.137-2.13,1.131-8.143V49.4a26.572,26.572,0,0,1-11.119,2.4,10.222,10.222,0,0,1-6.728-2.4,8.182,8.182,0,0,1-3.259-6.654V21.223l5.172-1.771V41.119a6.584,6.584,0,0,0,2.24,5.347,8.469,8.469,0,0,0,5.8,1.805,14.5,14.5,0,0,0,7.611-2.761V20.233h5.172Z"/>
      <path id="path50" class="cls-3" d="M164.92,51.666c-.617.051-1.183.074-1.7.074a10.179,10.179,0,0,1-6.836-2.094,7.235,7.235,0,0,1-2.439-5.789V23.487H150.4V20.233h3.542V11.592l5.166-1.839v10.48h5.811v3.254h-5.811V43.716q0,2.911,1.562,4.119a7.9,7.9,0,0,0,4.25,1.137Z"/>
      <path id="path52" class="cls-3" d="M196.235,51.242h-5.172V31.278a9.441,9.441,0,0,0-1.42-5.24,5.17,5.17,0,0,0-4.555-2.478q-3.556,0-8.9,3.752v23.93h-5.172V3.523l5.172-1.63V23.628a18.02,18.02,0,0,1,10.836-3.61,8.636,8.636,0,0,1,6.655,2.761,9.725,9.725,0,0,1,2.552,6.87V51.242Z"/>
      <path id="path54" class="cls-3" d="M223.724,35.138a15.892,15.892,0,0,0-1.844-8.052,7.723,7.723,0,0,0-6.8-4.091q-8.5.492-8.5,12.177a20.03,20.03,0,0,0,1.777,8.946q2.275,4.575,6.824,4.5Q223.724,48.554,223.724,35.138Zm5.664.034a18.4,18.4,0,0,1-3.542,11.543,12.738,12.738,0,0,1-10.763,5.166,12.485,12.485,0,0,1-10.627-5.166,18.644,18.644,0,0,1-3.469-11.543,16.48,16.48,0,0,1,3.752-10.978,12.926,12.926,0,0,1,10.411-4.742,13.144,13.144,0,0,1,10.486,4.742A16.48,16.48,0,0,1,229.389,35.172Z"/>
      <path id="path56" class="cls-3" d="M259.04,51.242h-5.172v-21.1a7.055,7.055,0,0,0-2.088-5.421,7.583,7.583,0,0,0-5.562-1.873,12.433,12.433,0,0,0-7.011,2.4V51.242h-5.172V24.618a25.478,25.478,0,0,1,8.216-4.244,25.071,25.071,0,0,1,6.236-.922,16.185,16.185,0,0,1,3.468.356,9.981,9.981,0,0,1,4.957,2.62,6.934,6.934,0,0,1,2.128,5.1Z"/>
      <path id="path1948" class="cls-4" d="M35.128,3.714a44.445,44.445,0,0,0-7.438.635c-6.587,1.164-7.783,3.6-7.783,8.091v5.932H35.473V20.35H14.066a9.719,9.719,0,0,0-9.724,7.892,29.1,29.1,0,0,0,0,15.82c1.106,4.608,3.749,7.892,8.273,7.892h5.352V44.842a9.892,9.892,0,0,1,9.724-9.67H43.238a7.842,7.842,0,0,0,7.783-7.91V12.44c0-4.218-3.559-7.387-7.783-8.091A48.55,48.55,0,0,0,35.128,3.714ZM26.711,8.486a2.967,2.967,0,1,1-2.921,2.975A2.953,2.953,0,0,1,26.711,8.486Z"/>
      <path id="path1950" class="cls-5" d="M52.962,20.35v6.912a9.984,9.984,0,0,1-9.724,9.869H27.69a7.94,7.94,0,0,0-7.783,7.91V59.863c0,4.218,3.668,6.7,7.783,7.91a26.048,26.048,0,0,0,15.548,0c3.919-1.135,7.783-3.418,7.783-7.91V53.931H35.473V51.953H58.8c4.524,0,6.21-3.155,7.783-7.892,1.625-4.876,1.556-9.565,0-15.82-1.118-4.5-3.253-7.892-7.783-7.892ZM44.218,57.886A2.966,2.966,0,1,1,41.3,60.843,2.938,2.938,0,0,1,44.218,57.886Z"/>
      <path id="text3004" class="cls-3" d="M269.111,15.622h.907V9.935h2.148V9.257h-5.2v.678h2.148v5.687m3.859,0h.775V10.428l1.681,5.193h.863l1.752-5.176v5.176h.845V9.257h-1.118l-1.915,5.453L274.22,9.257h-1.25v6.365"/>
      <path id="path1894" class="cls-6" d="M47.076,62.169c0,2.234-9.339,4.045-20.859,4.045S5.357,64.4,5.357,62.169s9.339-4.045,20.859-4.045,20.859,1.811,20.859,4.045Z" transform="translate(9.434 15.68)"/>
    </g>
  </g>
</svg>
