<svg xmlns="http://www.w3.org/2000/svg" xmlns:xlink="http://www.w3.org/1999/xlink" viewBox="2797.355 3318.719 150 150">
  <defs>
    <style>
      .cls-1 {
        fill: #fff;
        stroke: #95989a;
      }

      .cls-2 {
        clip-path: url(#clip-path);
      }

      .cls-3 {
        fill: #cf649a;
      }
    </style>
    <clipPath id="clip-path">
      <rect id="Rectangle_53" data-name="Rectangle 53" class="cls-1" width="150" height="150"/>
    </clipPath>
  </defs>
  <g id="Sass" class="cls-2" transform="translate(2797.355 3318.719)">
    <path id="sass-2" data-name="sass" class="cls-3" d="M129.093,64.635A30.9,30.9,0,0,0,115.5,67.8c-1.406-2.783-2.813-5.216-3.047-7.032a19.449,19.449,0,0,1-.264-5.918,47.425,47.425,0,0,1,1.787-6.388c-.03-.264-.323-1.553-3.34-1.582s-5.625.586-5.918,1.377a33.65,33.65,0,0,0-1.26,4.483c-.527,2.754-6.036,12.511-9.171,17.638a18,18,0,0,1-2.081-5.157,19.447,19.447,0,0,1-.263-5.918,47.45,47.45,0,0,1,1.787-6.387c-.029-.264-.322-1.553-3.34-1.582s-5.625.586-5.918,1.377-.615,2.666-1.26,4.483C82.6,59.009,75.27,75.3,73.366,79.548c-.967,2.168-1.816,3.9-2.432,5.069s-.029.088-.088.205c-.527,1-.82,1.553-.82,1.553v.03c-.41.732-.85,1.435-1.055,1.435-.146,0-.439-1.963.059-4.658,1.084-5.655,3.721-14.474,3.692-14.8,0-.146.5-1.7-1.7-2.49a2.67,2.67,0,0,0-3.076.527c-.176,0-.322.469-.322.469S70,56.959,63.081,56.959c-4.336,0-10.313,4.717-13.273,9.024-1.875,1.025-5.86,3.193-10.079,5.508-1.611.879-3.282,1.817-4.864,2.666l-.322-.352C26.164,64.869,10.665,58.54,11.31,46.527c.234-4.366,1.758-15.88,29.769-29.827C64.02,5.274,82.39,8.409,85.584,15.382c4.541,9.962-9.815,28.479-33.665,31.145-9.083,1.025-13.859-2.49-15.06-3.809-1.26-1.377-1.436-1.436-1.9-1.172-.762.41-.293,1.641,0,2.373.7,1.846,3.633,5.127,8.614,6.768,4.365,1.436,15.031,2.227,27.922-2.754,14.445-5.6,25.725-21.125,22.414-34.1C90.536.615,68.62-3.721,47.9,3.633,35.57,8.028,22.209,14.884,12.6,23.879,1.172,34.544-.645,43.861.117,47.729c2.667,13.8,21.682,22.795,29.3,29.446-.381.2-.732.41-1.055.586C24.553,79.636,10.05,87.224,6.417,95.252c-4.1,9.083.645,15.617,3.809,16.5,9.786,2.725,19.806-2.168,25.227-10.225,5.391-8.057,4.747-18.517,2.256-23.293l-.088-.176L40.609,76.3c1.934-1.143,3.839-2.2,5.508-3.106a36.48,36.48,0,0,0-1.963,9.962c-.41,5.157,1.7,11.837,4.483,14.474a4.96,4.96,0,0,0,3.6,1.172c3.223,0,4.688-2.667,6.3-5.86,1.992-3.9,3.75-8.409,3.75-8.409s-2.2,12.218,3.809,12.218c2.2,0,4.395-2.842,5.391-4.307v.029s.059-.088.176-.293q.184-.273.352-.556v-.059c.879-1.524,2.842-5.01,5.772-10.782C81.569,73.336,85.2,64.019,85.2,64.019a53.478,53.478,0,0,0,1.436,6.036,57.757,57.757,0,0,0,3.135,7.032c-.879,1.231-1.406,1.934-1.406,1.934l.029.029c-.7.938-1.494,1.934-2.314,2.93-2.989,3.575-6.563,7.647-7.032,8.819-.557,1.377-.439,2.4.645,3.223a5.865,5.865,0,0,0,3.692.586,16.445,16.445,0,0,0,5.508-1.26,19.077,19.077,0,0,0,4.747-2.49,10.567,10.567,0,0,0,4.541-9.346,18.792,18.792,0,0,0-1.729-6.592c.264-.381.528-.762.791-1.172a123.681,123.681,0,0,0,8.2-14.21,53.477,53.477,0,0,0,1.436,6.036,42.314,42.314,0,0,0,2.666,6.036c-4.336,3.545-7.061,7.647-8,10.343-1.729,4.981-.381,7.237,2.168,7.764a7.8,7.8,0,0,0,4.014-.82,18.189,18.189,0,0,0,5.069-2.608c2.93-2.168,5.743-5.186,5.6-9.259a17.749,17.749,0,0,0-1.26-5.479,28.544,28.544,0,0,1,14.533-1.67c13.038,1.524,15.617,9.669,15.119,13.068a8.752,8.752,0,0,1-4.132,5.86c-.908.557-1.2.762-1.113,1.172.117.616.527.586,1.318.469,1.084-.176,6.856-2.783,7.09-9.053.352-8.059-7.3-16.848-20.861-16.761ZM28.538,98.534c-4.307,4.717-10.372,6.5-12.95,4.981-2.783-1.611-1.7-8.555,3.6-13.566a68.94,68.94,0,0,1,10.167-7.589c.615-.381,1.553-.937,2.666-1.611a3.123,3.123,0,0,1,.293-.176c.205-.117.439-.264.674-.41a18.689,18.689,0,0,1-4.454,18.371Zm31.5-21.418c-1.494,3.662-4.659,13.068-6.563,12.54-1.641-.439-2.637-7.559-.323-14.591a32.574,32.574,0,0,1,5.127-9.405c2.374-2.637,4.952-3.516,5.6-2.432C64.635,64.635,60.972,74.831,60.035,77.116ZM86.023,89.539c-.645.323-1.231.557-1.494.381-.205-.117.263-.557.263-.557s3.252-3.487,4.541-5.1c.732-.937,1.611-2.021,2.549-3.252v.352c0,4.219-4.043,7.032-5.86,8.174Zm20.041-4.571c-.469-.352-.41-1.436,1.172-4.834a18.116,18.116,0,0,1,4.454-5.743,7.248,7.248,0,0,1,.439,2.52C112.1,82.185,108.349,84.148,106.064,84.968Z" transform="translate(0.034 18.711)"/>
  </g>
</svg>
