<svg xmlns="http://www.w3.org/2000/svg" xmlns:xlink="http://www.w3.org/1999/xlink" viewBox="2869.279 4202.529 35.329 35.884">
  <defs>
    <style>
      .cls-1 {
        fill: rgba(255,255,255,0.85);
        stroke: #95989a;
      }

      .cls-2 {
        clip-path: url(#clip-path);
      }

      .cls-3 {
        fill: #fff;
        fill-rule: evenodd;
      }
    </style>
    <clipPath id="clip-path">
      <ellipse id="Ellipse_1" data-name="Ellipse 1" class="cls-1" cx="17.665" cy="17.942" rx="17.665" ry="17.942" transform="translate(0)"/>
    </clipPath>
  </defs>
  <g id="setting_ico" data-name="setting ico" class="cls-2" transform="translate(2869.279 4202.53)">
    <g id="symbol-icon-gear" transform="translate(0)">
      <g id="Card-_-Default" data-name="Card-/-Default">
        <g id="Card">
          <path id="Combined-Shape" class="cls-3" d="M54.671,39.264l.077.255.258.048c.975.18,1.868.36,2.66.531.474.1.809.179.985.221a1.633,1.633,0,0,1,1.679,1.617v2.042a1.592,1.592,0,0,1-1.58,1.6c-.272.053-.606.127-1.08.227-.791.167-1.682.342-2.655.518l-.261.047-.076.258a12.827,12.827,0,0,1-.945,2.329l-.123.235.149.219c.562.825,1.065,1.592,1.5,2.279.262.412.443.7.537.86a1.665,1.665,0,0,1,.063,2.35L54.438,56.35a1.563,1.563,0,0,1-2.234,0c-.229-.158-.516-.343-.918-.61-.672-.446-1.421-.958-2.227-1.53l-.218-.154-.234.128a12.322,12.322,0,0,1-2.2.936l-.244.078-.05.255c-.194.992-.393,1.9-.585,2.708-.115.483-.2.824-.251,1a1.644,1.644,0,0,1-1.6,1.721H41.675a1.592,1.592,0,0,1-1.58-1.6c-.065-.3-.153-.636-.269-1.118-.194-.806-.395-1.713-.591-2.7l-.051-.254-.244-.077a12.22,12.22,0,0,1-2.1-.882l-.226-.121-.213.144c-.827.559-1.6,1.056-2.3,1.485-.417.256-.715.433-.872.523a1.614,1.614,0,0,1-2.328.072L29.48,54.907a1.622,1.622,0,0,1,0-2.269c.16-.257.333-.561.584-.985.42-.709.908-1.5,1.458-2.338l.141-.216-.118-.229a12.736,12.736,0,0,1-.859-2.12l-.076-.248-.251-.051c-.978-.2-1.875-.4-2.672-.6-.477-.117-.814-.206-.99-.255A1.642,1.642,0,0,1,25,43.979V41.937a1.593,1.593,0,0,1,1.58-1.6c.292-.066.63-.156,1.107-.275.8-.2,1.7-.4,2.675-.6l.25-.051.076-.247a12.9,12.9,0,0,1,.861-2.118l.119-.23-.142-.216c-.557-.847-1.052-1.639-1.479-2.354-.256-.428-.431-.734-.521-.9a1.675,1.675,0,0,1-.071-2.364l1.422-1.443a1.563,1.563,0,0,1,2.234,0c.255.164.558.341.981.6.707.433,1.49.935,2.328,1.5l.212.143.226-.12a12.377,12.377,0,0,1,2.181-.9l.252-.077.047-.263c.178-.991.355-1.9.524-2.708.1-.484.177-.825.219-1A1.634,1.634,0,0,1,41.675,25h2.011a1.592,1.592,0,0,1,1.58,1.6c.052.278.126.62.225,1.1.165.809.339,1.72.512,2.714l.046.265.254.078a12.244,12.244,0,0,1,2.272.953l.232.126.217-.152c.821-.577,1.583-1.094,2.268-1.543.41-.269.7-.455.856-.551a1.6,1.6,0,0,1,2.314-.064l1.423,1.443a1.625,1.625,0,0,1,0,2.269c-.156.234-.342.529-.608.943-.445.691-.957,1.461-1.527,2.29l-.151.22.125.237A13.012,13.012,0,0,1,54.671,39.264ZM42.665,50.632a7.69,7.69,0,1,0-7.571-7.689A7.631,7.631,0,0,0,42.665,50.632Z" transform="translate(-25 -25)"/>
        </g>
      </g>
    </g>
  </g>
</svg>
