<svg xmlns="http://www.w3.org/2000/svg" xmlns:xlink="http://www.w3.org/1999/xlink" viewBox="215 1194 150 150">
  <defs>
    <style>
      .cls-1 {
        fill: #fff;
        stroke: #95989a;
      }

      .cls-2 {
        clip-path: url(#clip-path);
      }

      .cls-3 {
        fill: #f7ba47;
      }

      .cls-4 {
        fill: #ed6636;
      }

      .cls-5 {
        fill: #f1933f;
      }

      .cls-6 {
        fill: #ed6736;
      }
    </style>
    <clipPath id="clip-path">
      <rect id="Rectangle_9" data-name="Rectangle 9" class="cls-1" width="150" height="150" transform="translate(138 1214)"/>
    </clipPath>
  </defs>
  <g id="tensorflow" class="cls-2" transform="translate(77 -20)">
    <g id="tensorflow_icon" transform="translate(142.151 1213.994)">
      <path id="Path_4" data-name="Path 4" class="cls-3" d="M.355,45.79c.047-.639.662-.757,1.064-.993Q18.7,34.969,36,25.142,57.853,12.8,79.66.4a2.241,2.241,0,0,1,2.578.024q20.648,11.956,41.32,23.817c5.511,3.169,11.069,6.315,16.58,9.508.52.284,1.183.473,1.348,1.183a2.2,2.2,0,0,0-.568.118c-3.453,2.01-6.906,4.044-10.383,6.055q-4.541,2.625-9.082,5.2a.328.328,0,0,0-.213,0c-1.4-.828-2.767-1.656-4.163-2.46L82.309,23.628c-.331-.189-.71-.568-1.064-.4-.473.213-.213.781-.213,1.183-.024,7.143-.024,14.262-.024,21.4-.355-.4-.189-.9-.189-1.372q0-10.111-.024-20.222c0-.331.189-.781-.189-.97-.355-.166-.639.189-.922.355-4.163,2.365-8.325,4.754-12.488,7.119Q56.374,36.861,45.554,42.975,32.888,50.177,20.27,57.4,10.3,51.62.355,45.79Z"/>
      <path id="Path_5" data-name="Path 5" class="cls-4" d="M60.714,150a17.307,17.307,0,0,1-3.808-2.034c-5.2-2.956-10.36-5.984-15.539-8.988a1.411,1.411,0,0,1-.875-1.372q.035-34.094.024-68.212a.213.213,0,0,1,.024-.118,8.706,8.706,0,0,1,.922-.71q8.976-5.038,18-10.076c1.206-.686,1.23-.662,1.23.71,0,7.119.024,14.262.024,21.381.189.544.733.686,1.159.922,1.7.97,3.43,1.939,5.132,2.886,4.659,2.6,9.342,5.2,14,7.781v2.6c.024,6.788.024,13.576.047,20.364l.024-.024a4.216,4.216,0,0,1-.781-.213q-4.577-2.661-9.177-5.322c-3.122-1.821-6.268-3.6-9.366-5.44-.922-.544-1.112-.284-1.088.686.047,2.2.024,4.4.024,6.623Q60.726,130.748,60.714,150Z"/>
      <path id="Path_6" data-name="Path 6" class="cls-5" d="M60.714,80.606c0-7.119-.024-14.262-.024-21.381,0-1.372-.024-1.4-1.23-.71-6.008,3.335-11.992,6.693-18,10.076a8.7,8.7,0,0,0-.922.71,10.774,10.774,0,0,0-3.43,1.679c-5.416,3-10.809,6.055-16.225,9.106a5.145,5.145,0,0,1-.639.26V57.45q12.63-7.2,25.284-14.428,10.821-6.138,21.641-12.252,6.244-3.548,12.488-7.119c.307-.166.591-.544.922-.355.378.189.189.639.189.97q0,10.111.024,20.222c0,.449-.166.946.189,1.372a.729.729,0,0,1,.024.237c0,7.734.024,15.445.024,23.179a2.213,2.213,0,0,0-1.325.426C75.142,72.375,70.6,75.047,66.012,77.7A57.1,57.1,0,0,1,60.714,80.606Z"/>
      <path id="Path_7" data-name="Path 7" class="cls-4" d="M81.031,46.05a.8.8,0,0,0-.024-.237c0-7.143,0-14.262.024-21.4,0-.4-.26-.946.213-1.183.355-.166.733.213,1.064.4l34.768,20.222c1.4.8,2.767,1.632,4.163,2.46V67.337c0,.639-.071,1.159-.71,1.419a.445.445,0,0,1-.473-.26c-.071-.5-.449-.449-.781-.426a.435.435,0,0,1-.4-.284c-.071-.781-.639-.686-1.183-.71h0c-.047-.284-.095-.591-.473-.237a.445.445,0,0,1-.473-.26c-.071-.473-.426-.426-.757-.426L103.714,59.13Q92.361,52.6,81.031,46.05Z"/>
      <path id="Path_8" data-name="Path 8" class="cls-5" d="M60.714,150q0-19.264-.024-38.505c0-2.2.024-4.4-.024-6.623-.024-.97.166-1.23,1.088-.686,3.122,1.845,6.244,3.619,9.366,5.44q4.577,2.661,9.177,5.322a2.935,2.935,0,0,0,.781.213c-.024.9-.095,1.8-.095,2.72,0,6.457-.024,12.914,0,19.395a1.642,1.642,0,0,1-.828,1.656c-6.173,3.548-12.323,7.143-18.5,10.714A1.538,1.538,0,0,1,60.714,150Z"/>
      <path id="Path_9" data-name="Path 9" class="cls-3" d="M60.714,80.606a50.777,50.777,0,0,0,5.322-2.956c4.588-2.625,9.13-5.322,13.694-7.994a2.163,2.163,0,0,1,1.325-.426c4.115,2.294,8.255,4.565,12.37,6.859,2.342,1.3,4.659,2.625,7,3.926.26.142.615.213.686.591-1.325.757-2.673,1.514-4,2.271q-8.053,4.648-16.083,9.342c-4.659-2.6-9.342-5.2-14-7.781-1.727-.946-3.43-1.916-5.132-2.886C61.448,81.292,60.9,81.15,60.714,80.606Z"/>
      <path id="Path_10" data-name="Path 10" class="cls-4" d="M20.246,57.427v22.9c-3.169-1.585-6.1-3.548-9.177-5.3-3.311-1.892-6.575-3.855-9.91-5.724A2.028,2.028,0,0,1,0,67.313c.024-6.788,0-13.553.024-20.341,0-.426-.095-.875.355-1.183Z"/>
      <path id="Path_11" data-name="Path 11" class="cls-5" d="M81.031,92.219C86.4,89.1,91.746,86,97.115,82.876c1.325-.757,2.649-1.514,4-2.271.024,1.088.071,2.2.095,3.288q0,9.26.024,18.519a1.573,1.573,0,0,1-.828,1.632c-6.339,3.642-12.63,7.332-18.969,11-.095.047-.213.071-.331.118-.024-6.788-.024-13.576-.047-20.364C81.031,93.945,81.031,93.07,81.031,92.219Z"/>
      <path id="Path_12" data-name="Path 12" class="cls-5" d="M121.476,46.334q4.541-2.59,9.082-5.2c3.453-2.01,6.906-4.044,10.383-6.055a1.522,1.522,0,0,1,.568-.118,2.622,2.622,0,0,1,.166,1.277c0,6.693-.024,13.387.024,20.08A1.976,1.976,0,0,1,140.61,58.3c-5.984,3.453-11.944,6.954-17.928,10.43-.355.213-.686.544-1.183.426Q121.464,57.734,121.476,46.334Z"/>
      <path id="Path_13" data-name="Path 13" class="cls-6" d="M121.476,46.334v22.8c-.4.118-.662-.142-.946-.378.662-.26.71-.781.71-1.419-.024-7,0-14.026,0-21.027A.887.887,0,0,1,121.476,46.334Z"/>
      <path id="Path_14" data-name="Path 14" class="cls-6" d="M117.715,67.1c.52,0,1.112-.071,1.183.71A2.038,2.038,0,0,1,117.715,67.1Z"/>
      <path id="Path_15" data-name="Path 15" class="cls-6" d="M119.276,68.094c.355-.024.71-.071.781.426A1.418,1.418,0,0,1,119.276,68.094Z"/>
      <path id="Path_16" data-name="Path 16" class="cls-6" d="M115.989,66.178c.331-.024.686-.071.757.426A1.229,1.229,0,0,1,115.989,66.178Z"/>
      <path id="Path_17" data-name="Path 17" class="cls-6" d="M117.219,66.864c.378-.331.426-.047.473.237C117.55,67.029,117.384,66.935,117.219,66.864Z"/>
    </g>
  </g>
</svg>
