<?xml version="1.0" standalone="no"?>
<!DOCTYPE svg PUBLIC "-//W3C//DTD SVG 20010904//EN"
 "http://www.w3.org/TR/2001/REC-SVG-20010904/DTD/svg10.dtd">
<svg version="1.0" xmlns="http://www.w3.org/2000/svg"
 width="965.000000pt" height="965.000000pt" viewBox="0 0 965.000000 965.000000"
 preserveAspectRatio="xMidYMid meet">
<metadata>
Created by potrace 1.11, written by Peter Selinger 2001-2013
</metadata>
<g transform="translate(0.000000,965.000000) scale(0.100000,-0.100000)"
fill="#000000" stroke="none">
<path d="M4765 9520 c-27 -10 -189 -67 -360 -125 -170 -59 -332 -115 -360
-125 -27 -11 -111 -40 -185 -65 -74 -26 -184 -64 -245 -85 -60 -21 -229 -80
-375 -130 -146 -50 -353 -122 -460 -160 -107 -38 -276 -96 -375 -130 -99 -34
-202 -70 -230 -80 -27 -11 -221 -78 -430 -151 -209 -72 -488 -168 -620 -214
-132 -46 -321 -111 -420 -145 -99 -34 -185 -66 -191 -71 -7 -6 -8 -26 -3 -61
5 -28 11 -79 14 -112 3 -34 8 -72 10 -86 2 -14 7 -50 10 -80 6 -54 10 -94 20
-167 2 -21 7 -60 10 -88 5 -48 11 -99 20 -175 3 -19 11 -93 20 -165 8 -71 17
-148 20 -170 2 -22 7 -62 10 -90 3 -27 8 -66 10 -85 7 -51 24 -197 30 -255 3
-27 10 -84 15 -125 5 -41 12 -97 15 -125 3 -27 8 -63 10 -80 5 -30 10 -71 20
-175 3 -30 8 -68 10 -85 2 -16 7 -52 10 -80 3 -27 10 -84 15 -125 5 -41 12
-100 15 -130 3 -30 8 -66 10 -80 2 -14 6 -54 10 -90 3 -36 7 -76 10 -90 2 -14
7 -50 10 -80 3 -30 8 -66 10 -80 2 -14 7 -52 10 -85 3 -33 8 -71 10 -85 2 -14
6 -50 10 -81 3 -31 7 -65 9 -75 2 -11 7 -50 10 -89 4 -38 9 -81 11 -95 2 -14
6 -52 10 -85 3 -33 8 -71 10 -85 2 -14 9 -70 15 -125 6 -55 13 -111 15 -124 3
-14 7 -54 11 -90 3 -36 7 -72 9 -81 1 -8 6 -44 10 -80 3 -36 8 -76 10 -90 2
-14 11 -88 20 -165 9 -77 18 -157 21 -177 12 -106 14 -126 19 -158 3 -19 16
-132 30 -250 31 -276 34 -298 40 -340 3 -19 7 -57 10 -85 3 -27 7 -66 10 -85
2 -19 7 -62 10 -95 4 -39 13 -67 26 -81 12 -12 19 -35 19 -57 0 -21 4 -45 9
-55 6 -9 14 -56 20 -105 6 -48 16 -106 23 -130 26 -87 53 -105 773 -491 369
-198 1120 -603 1670 -900 550 -297 1025 -550 1055 -563 89 -37 113 -32 273 50
116 60 963 516 3136 1688 100 54 190 110 212 132 40 40 63 98 73 182 16 132
41 238 56 242 9 2 17 16 18 31 3 33 31 268 37 302 2 14 6 52 10 85 3 33 12
112 20 175 8 63 17 140 20 170 3 30 14 127 25 215 10 88 22 185 25 215 4 30
10 84 15 120 5 36 12 92 15 125 3 33 13 114 21 180 8 66 17 140 20 165 3 25 7
59 9 76 2 17 7 57 10 90 3 32 8 70 10 84 2 14 7 50 10 80 7 69 16 150 20 170
2 8 6 42 9 75 7 62 13 115 21 175 2 19 7 60 10 90 3 30 12 107 20 170 8 63 17
140 20 170 3 30 8 66 10 80 3 14 7 45 9 70 6 51 34 299 40 345 2 17 7 57 10
90 4 33 8 71 11 85 2 14 7 52 10 85 4 33 8 71 10 85 2 14 6 50 10 80 3 30 7
71 10 90 7 50 35 287 41 340 12 109 14 131 18 162 7 48 15 116 21 173 3 28 7
64 10 80 2 17 7 57 10 90 3 33 8 69 10 80 2 11 7 49 10 85 4 36 21 188 39 337
28 241 30 273 16 279 -14 5 -371 129 -1845 641 -962 334 -1789 621 -2138 742
-176 61 -329 111 -340 110 -12 0 -44 -9 -72 -19z"/>
</g>
</svg>
