<?xml version="1.0" encoding="UTF-8" standalone="no"?>
<!DOCTYPE svg PUBLIC "-//W3C//DTD SVG 1.1//EN"
 "http://www.w3.org/Graphics/SVG/1.1/DTD/svg11.dtd">
<!-- Generated by graphviz version 2.40.1 (20161225.0304)
 -->
<!-- Title: dependencies Pages: 1 -->
<svg width="547pt" height="360pt"
 viewBox="0.00 0.00 547.00 360.00" xmlns="http://www.w3.org/2000/svg" xmlns:xlink="http://www.w3.org/1999/xlink">
<g id="graph0" class="graph" transform="scale(1 1) rotate(0) translate(4 356)">
<title>dependencies</title>
<polygon fill="#ffffff" stroke="transparent" points="-4,4 -4,-356 543,-356 543,4 -4,4"/>
<text text-anchor="start" x="248.5091" y="-42.4" font-family="sans-serif" font-weight="bold" font-size="14.00" fill="#000000">Legend</text>
<polygon fill="#ffffb3" stroke="transparent" points="35.5,-10 35.5,-30 55.5,-30 55.5,-10 35.5,-10"/>
<text text-anchor="start" x="59.129" y="-15.4" font-family="sans-serif" font-size="14.00" fill="#000000"> &#160;Declarations</text>
<polygon fill="#8dd3c7" stroke="transparent" points="148.5,-10 148.5,-30 168.5,-30 168.5,-10 148.5,-10"/>
<text text-anchor="start" x="172.2251" y="-15.4" font-family="sans-serif" font-size="14.00" fill="#000000"> &#160;Module</text>
<polygon fill="#80b1d3" stroke="transparent" points="234.5,-10 234.5,-30 254.5,-30 254.5,-10 234.5,-10"/>
<text text-anchor="start" x="258.2812" y="-15.4" font-family="sans-serif" font-size="14.00" fill="#000000"> &#160;Bootstrap</text>
<polygon fill="#fdb462" stroke="transparent" points="331.5,-10 331.5,-30 351.5,-30 351.5,-10 331.5,-10"/>
<text text-anchor="start" x="355.1732" y="-15.4" font-family="sans-serif" font-size="14.00" fill="#000000"> &#160;Providers</text>
<polygon fill="#fb8072" stroke="transparent" points="427.5,-10 427.5,-30 447.5,-30 447.5,-10 427.5,-10"/>
<text text-anchor="start" x="451.2258" y="-15.4" font-family="sans-serif" font-size="14.00" fill="#000000"> &#160;Exports</text>
<g id="clust1" class="cluster">
<title>cluster_AppModule</title>
<polygon fill="none" stroke="#000000" stroke-dasharray="1,5" points="197,-146 197,-344 481,-344 481,-146 197,-146"/>
</g>
<g id="clust2" class="cluster">
<title>cluster_AppModule_declarations</title>
<polygon fill="none" stroke="#000000" points="351,-154 351,-206 473,-206 473,-154 351,-154"/>
</g>
<g id="clust4" class="cluster">
<title>cluster_AppModule_imports</title>
<polygon fill="none" stroke="#000000" points="205,-154 205,-206 343,-206 343,-154 205,-154"/>
</g>
<g id="clust6" class="cluster">
<title>cluster_AppModule_bootstrap</title>
<polygon fill="none" stroke="#000000" points="349,-284 349,-336 473,-336 473,-284 349,-284"/>
</g>
<g id="clust8" class="cluster">
<title>cluster_FileUploadModule</title>
<polygon fill="none" stroke="#000000" stroke-dasharray="1,5" points="8,-70 8,-138 531,-138 531,-70 8,-70"/>
</g>
<g id="clust9" class="cluster">
<title>cluster_FileUploadModule_declarations</title>
<polygon fill="none" stroke="#000000" points="188,-78 188,-130 523,-130 523,-78 188,-78"/>
</g>
<g id="clust13" class="cluster">
<title>cluster_FileUploadModule_exports</title>
<polygon fill="none" stroke="#000000" points="16,-78 16,-130 180,-130 180,-78 16,-78"/>
</g>
<!-- AppComponent -->
<g id="node1" class="node">
<title>AppComponent</title>
<polygon fill="#ffffb3" stroke="#000000" points="464.9399,-198 359.0601,-198 359.0601,-162 464.9399,-162 464.9399,-198"/>
<text text-anchor="middle" x="412" y="-175.8" font-family="Times,serif" font-size="14.00" fill="#000000">AppComponent</text>
</g>
<!-- AppModule -->
<g id="node2" class="node">
<title>AppModule</title>
<polygon fill="#8dd3c7" stroke="#000000" points="452.6571,-263 449.6571,-267 428.6571,-267 425.6571,-263 369.3429,-263 369.3429,-227 452.6571,-227 452.6571,-263"/>
<text text-anchor="middle" x="411" y="-240.8" font-family="Times,serif" font-size="14.00" fill="#000000">AppModule</text>
</g>
<!-- AppComponent&#45;&gt;AppModule -->
<g id="edge1" class="edge">
<title>AppComponent&#45;&gt;AppModule</title>
<path fill="none" stroke="#000000" d="M424.9427,-198.1061C424.9427,-198.1061 424.9427,-216.991 424.9427,-216.991"/>
<polygon fill="#000000" stroke="#000000" points="421.4428,-216.9909 424.9427,-226.991 428.4428,-216.991 421.4428,-216.9909"/>
</g>
<!-- AppComponent&#45;&gt;AppModule -->
<g id="edge4" class="edge">
<title>AppComponent&#45;&gt;AppModule</title>
<path fill="none" stroke="#000000" d="M397.0573,-198.1061C397.0573,-198.1061 397.0573,-216.991 397.0573,-216.991"/>
<polygon fill="#000000" stroke="#000000" points="393.5574,-216.9909 397.0573,-226.991 400.5574,-216.991 393.5574,-216.9909"/>
</g>
<!-- AppComponent  -->
<g id="node4" class="node">
<title>AppComponent </title>
<polygon fill="#80b1d3" stroke="#000000" points="465.439,-328 356.561,-328 356.561,-292 465.439,-292 465.439,-328"/>
<text text-anchor="middle" x="411" y="-305.8" font-family="Times,serif" font-size="14.00" fill="#000000">AppComponent </text>
</g>
<!-- AppModule&#45;&gt;AppComponent  -->
<g id="edge3" class="edge">
<title>AppModule&#45;&gt;AppComponent </title>
<path fill="none" stroke="#000000" stroke-dasharray="1,5" d="M397.0573,-263.1061C397.0573,-263.1061 397.0573,-281.991 397.0573,-281.991"/>
<polygon fill="#000000" stroke="#000000" points="393.5574,-281.9909 397.0573,-291.991 400.5574,-281.991 393.5574,-281.9909"/>
</g>
<!-- AppModule&#45;&gt;AppComponent  -->
<g id="edge5" class="edge">
<title>AppModule&#45;&gt;AppComponent </title>
<path fill="none" stroke="#000000" stroke-dasharray="1,5" d="M424.9427,-263.1061C424.9427,-263.1061 424.9427,-281.991 424.9427,-281.991"/>
<polygon fill="#000000" stroke="#000000" points="421.4428,-281.9909 424.9427,-291.991 428.4428,-281.991 421.4428,-281.9909"/>
</g>
<!-- FileUploadModule -->
<g id="node3" class="node">
<title>FileUploadModule</title>
<polygon fill="#8dd3c7" stroke="#000000" points="335.0409,-198 332.0409,-202 311.0409,-202 308.0409,-198 212.9591,-198 212.9591,-162 335.0409,-162 335.0409,-198"/>
<text text-anchor="middle" x="274" y="-175.8" font-family="Times,serif" font-size="14.00" fill="#000000">FileUploadModule</text>
</g>
<!-- FileUploadModule&#45;&gt;AppModule -->
<g id="edge2" class="edge">
<title>FileUploadModule&#45;&gt;AppModule</title>
<path fill="none" stroke="#000000" d="M274,-198.1061C274,-217.3391 274,-245 274,-245 274,-245 359.1511,-245 359.1511,-245"/>
<polygon fill="#000000" stroke="#000000" points="359.1511,-248.5001 369.1511,-245 359.151,-241.5001 359.1511,-248.5001"/>
</g>
<!-- FileUploadComponent  -->
<g id="node7" class="node">
<title>FileUploadComponent </title>
<polygon fill="#fb8072" stroke="#000000" points="171.8227,-122 24.1773,-122 24.1773,-86 171.8227,-86 171.8227,-122"/>
<text text-anchor="middle" x="98" y="-99.8" font-family="Times,serif" font-size="14.00" fill="#000000">FileUploadComponent </text>
</g>
<!-- FileUploadModule&#45;&gt;FileUploadComponent  -->
<g id="edge8" class="edge">
<title>FileUploadModule&#45;&gt;FileUploadComponent </title>
<path fill="none" stroke="#000000" stroke-dasharray="5,2" d="M212.9377,-180C162.1047,-180 98,-180 98,-180 98,-180 98,-132.0109 98,-132.0109"/>
<polygon fill="#000000" stroke="#000000" points="101.5001,-132.0109 98,-122.0109 94.5001,-132.011 101.5001,-132.0109"/>
</g>
<!-- FileUploadComponent -->
<g id="node5" class="node">
<title>FileUploadComponent</title>
<polygon fill="#ffffb3" stroke="#000000" points="515.323,-122 370.677,-122 370.677,-86 515.323,-86 515.323,-122"/>
<text text-anchor="middle" x="443" y="-99.8" font-family="Times,serif" font-size="14.00" fill="#000000">FileUploadComponent</text>
</g>
<!-- FileUploadComponent&#45;&gt;FileUploadModule -->
<g id="edge6" class="edge">
<title>FileUploadComponent&#45;&gt;FileUploadModule</title>
<path fill="none" stroke="#000000" d="M417.7791,-122.1097C417.7791,-131.897 417.7791,-142 417.7791,-142 417.7791,-142 294.4233,-142 294.4233,-142 294.4233,-142 294.4233,-151.8903 294.4233,-151.8903"/>
<polygon fill="#000000" stroke="#000000" points="290.9234,-151.8903 294.4233,-161.8903 297.9234,-151.8904 290.9234,-151.8903"/>
</g>
<!-- FileDragNDropDirective -->
<g id="node6" class="node">
<title>FileDragNDropDirective</title>
<polygon fill="#ffffb3" stroke="#000000" points="352.2171,-122 195.7829,-122 195.7829,-86 352.2171,-86 352.2171,-122"/>
<text text-anchor="middle" x="274" y="-99.8" font-family="Times,serif" font-size="14.00" fill="#000000">FileDragNDropDirective</text>
</g>
<!-- FileDragNDropDirective&#45;&gt;FileUploadModule -->
<g id="edge7" class="edge">
<title>FileDragNDropDirective&#45;&gt;FileUploadModule</title>
<path fill="none" stroke="#000000" d="M253.5767,-122.0109C253.5767,-122.0109 253.5767,-151.855 253.5767,-151.855"/>
<polygon fill="#000000" stroke="#000000" points="250.0768,-151.8549 253.5767,-161.855 257.0768,-151.855 250.0768,-151.8549"/>
</g>
</g>
</svg>
